<mxfile host="app.diagrams.net" agent="Mozilla/5.0 (Windows NT 10.0; Win64; x64) AppleWebKit/537.36 (KHTML, like Gecko) Chrome/135.0.0.0 Safari/537.36 Edg/135.0.0.0" version="26.2.8">
  <diagram name="Page-1" id="uYaT6Kv0SU_o9kPGwDmr">
    <mxGraphModel dx="2069" dy="1731" grid="1" gridSize="10" guides="1" tooltips="1" connect="1" arrows="1" fold="1" page="1" pageScale="1" pageWidth="850" pageHeight="1100" math="0" shadow="0">
      <root>
        <mxCell id="0" />
        <mxCell id="1" parent="0" />
        <mxCell id="bbZ6ZN18grUARAi-AjBU-4" style="edgeStyle=orthogonalEdgeStyle;rounded=0;orthogonalLoop=1;jettySize=auto;html=1;entryX=0.5;entryY=0;entryDx=0;entryDy=0;" parent="1" source="OS3mKAPkZy1OICuxcwNQ-1" target="OS3mKAPkZy1OICuxcwNQ-2" edge="1">
          <mxGeometry relative="1" as="geometry" />
        </mxCell>
        <mxCell id="OS3mKAPkZy1OICuxcwNQ-1" value="Select Power up" style="ellipse;whiteSpace=wrap;html=1;" parent="1" vertex="1">
          <mxGeometry x="230" y="-440" width="120" height="80" as="geometry" />
        </mxCell>
        <mxCell id="bbZ6ZN18grUARAi-AjBU-2" style="edgeStyle=orthogonalEdgeStyle;rounded=0;orthogonalLoop=1;jettySize=auto;html=1;" parent="1" source="OS3mKAPkZy1OICuxcwNQ-2" target="OS3mKAPkZy1OICuxcwNQ-5" edge="1">
          <mxGeometry relative="1" as="geometry" />
        </mxCell>
        <mxCell id="OS3mKAPkZy1OICuxcwNQ-2" value="PlayerPick&lt;div&gt;Position&lt;/div&gt;" style="ellipse;whiteSpace=wrap;html=1;" parent="1" vertex="1">
          <mxGeometry x="230" y="-180" width="120" height="80" as="geometry" />
        </mxCell>
        <mxCell id="t4_ijsETieM0t6LIqUsj-41" style="edgeStyle=orthogonalEdgeStyle;rounded=0;orthogonalLoop=1;jettySize=auto;html=1;entryX=1;entryY=0.5;entryDx=0;entryDy=0;" parent="1" source="OS3mKAPkZy1OICuxcwNQ-4" edge="1">
          <mxGeometry relative="1" as="geometry">
            <mxPoint x="130" y="-590" as="targetPoint" />
          </mxGeometry>
        </mxCell>
        <mxCell id="t4_ijsETieM0t6LIqUsj-69" style="edgeStyle=orthogonalEdgeStyle;rounded=0;orthogonalLoop=1;jettySize=auto;html=1;entryX=0.5;entryY=0;entryDx=0;entryDy=0;" parent="1" source="OS3mKAPkZy1OICuxcwNQ-4" target="OS3mKAPkZy1OICuxcwNQ-1" edge="1">
          <mxGeometry relative="1" as="geometry" />
        </mxCell>
        <mxCell id="OS3mKAPkZy1OICuxcwNQ-4" value="Start Turn" style="ellipse;whiteSpace=wrap;html=1;" parent="1" vertex="1">
          <mxGeometry x="230" y="-630" width="120" height="80" as="geometry" />
        </mxCell>
        <mxCell id="OS3mKAPkZy1OICuxcwNQ-9" style="edgeStyle=orthogonalEdgeStyle;rounded=0;orthogonalLoop=1;jettySize=auto;html=1;entryX=0.5;entryY=0;entryDx=0;entryDy=0;" parent="1" source="OS3mKAPkZy1OICuxcwNQ-5" target="OS3mKAPkZy1OICuxcwNQ-8" edge="1">
          <mxGeometry relative="1" as="geometry" />
        </mxCell>
        <mxCell id="OS3mKAPkZy1OICuxcwNQ-5" value="Player Turn" style="ellipse;whiteSpace=wrap;html=1;" parent="1" vertex="1">
          <mxGeometry x="230" y="60" width="120" height="80" as="geometry" />
        </mxCell>
        <mxCell id="OS3mKAPkZy1OICuxcwNQ-11" style="edgeStyle=orthogonalEdgeStyle;rounded=0;orthogonalLoop=1;jettySize=auto;html=1;entryX=0.5;entryY=0;entryDx=0;entryDy=0;" parent="1" source="OS3mKAPkZy1OICuxcwNQ-8" target="OS3mKAPkZy1OICuxcwNQ-10" edge="1">
          <mxGeometry relative="1" as="geometry" />
        </mxCell>
        <mxCell id="t4_ijsETieM0t6LIqUsj-39" style="edgeStyle=orthogonalEdgeStyle;rounded=0;orthogonalLoop=1;jettySize=auto;html=1;entryX=1;entryY=0.5;entryDx=0;entryDy=0;" parent="1" source="OS3mKAPkZy1OICuxcwNQ-8" target="t4_ijsETieM0t6LIqUsj-38" edge="1">
          <mxGeometry relative="1" as="geometry" />
        </mxCell>
        <mxCell id="OS3mKAPkZy1OICuxcwNQ-8" value="Enemy Turn" style="ellipse;whiteSpace=wrap;html=1;" parent="1" vertex="1">
          <mxGeometry x="230" y="520" width="120" height="80" as="geometry" />
        </mxCell>
        <mxCell id="OS3mKAPkZy1OICuxcwNQ-13" style="edgeStyle=orthogonalEdgeStyle;rounded=0;orthogonalLoop=1;jettySize=auto;html=1;" parent="1" source="OS3mKAPkZy1OICuxcwNQ-10" target="OS3mKAPkZy1OICuxcwNQ-12" edge="1">
          <mxGeometry relative="1" as="geometry" />
        </mxCell>
        <mxCell id="t4_ijsETieM0t6LIqUsj-37" style="edgeStyle=orthogonalEdgeStyle;rounded=0;orthogonalLoop=1;jettySize=auto;html=1;" parent="1" source="OS3mKAPkZy1OICuxcwNQ-10" target="t4_ijsETieM0t6LIqUsj-36" edge="1">
          <mxGeometry relative="1" as="geometry" />
        </mxCell>
        <mxCell id="OS3mKAPkZy1OICuxcwNQ-10" value="End Turn" style="ellipse;whiteSpace=wrap;html=1;" parent="1" vertex="1">
          <mxGeometry x="230" y="890" width="120" height="80" as="geometry" />
        </mxCell>
        <mxCell id="OS3mKAPkZy1OICuxcwNQ-15" style="edgeStyle=orthogonalEdgeStyle;rounded=0;orthogonalLoop=1;jettySize=auto;html=1;" parent="1" source="OS3mKAPkZy1OICuxcwNQ-12" target="OS3mKAPkZy1OICuxcwNQ-14" edge="1">
          <mxGeometry relative="1" as="geometry" />
        </mxCell>
        <mxCell id="OS3mKAPkZy1OICuxcwNQ-12" value="Player Dead?" style="strokeWidth=2;html=1;shape=mxgraph.flowchart.decision;whiteSpace=wrap;" parent="1" vertex="1">
          <mxGeometry x="240" y="1050" width="100" height="100" as="geometry" />
        </mxCell>
        <mxCell id="QmYlwwuaD85ARAM7p4Gj-2" style="edgeStyle=orthogonalEdgeStyle;rounded=0;orthogonalLoop=1;jettySize=auto;html=1;entryX=1;entryY=0.5;entryDx=0;entryDy=0;" parent="1" source="OS3mKAPkZy1OICuxcwNQ-14" target="QmYlwwuaD85ARAM7p4Gj-1" edge="1">
          <mxGeometry relative="1" as="geometry" />
        </mxCell>
        <mxCell id="OS3mKAPkZy1OICuxcwNQ-14" value="Lose" style="ellipse;whiteSpace=wrap;html=1;" parent="1" vertex="1">
          <mxGeometry x="40" y="1060" width="120" height="80" as="geometry" />
        </mxCell>
        <mxCell id="OS3mKAPkZy1OICuxcwNQ-16" value="YES" style="text;html=1;align=center;verticalAlign=middle;resizable=0;points=[];autosize=1;strokeColor=none;fillColor=none;" parent="1" vertex="1">
          <mxGeometry x="180" y="1070" width="50" height="30" as="geometry" />
        </mxCell>
        <mxCell id="OS3mKAPkZy1OICuxcwNQ-20" style="edgeStyle=orthogonalEdgeStyle;rounded=0;orthogonalLoop=1;jettySize=auto;html=1;exitX=0;exitY=0.5;exitDx=0;exitDy=0;exitPerimeter=0;entryX=1;entryY=0.5;entryDx=0;entryDy=0;" parent="1" source="OS3mKAPkZy1OICuxcwNQ-18" target="OS3mKAPkZy1OICuxcwNQ-19" edge="1">
          <mxGeometry relative="1" as="geometry" />
        </mxCell>
        <mxCell id="bbZ6ZN18grUARAi-AjBU-6" style="edgeStyle=orthogonalEdgeStyle;rounded=0;orthogonalLoop=1;jettySize=auto;html=1;entryX=1;entryY=0.5;entryDx=0;entryDy=0;" parent="1" source="OS3mKAPkZy1OICuxcwNQ-18" target="OS3mKAPkZy1OICuxcwNQ-4" edge="1">
          <mxGeometry relative="1" as="geometry">
            <Array as="points">
              <mxPoint x="430" y="1310" />
              <mxPoint x="430" y="-590" />
            </Array>
          </mxGeometry>
        </mxCell>
        <mxCell id="OS3mKAPkZy1OICuxcwNQ-18" value="Enemy Dead?" style="strokeWidth=2;html=1;shape=mxgraph.flowchart.decision;whiteSpace=wrap;" parent="1" vertex="1">
          <mxGeometry x="240" y="1260" width="100" height="100" as="geometry" />
        </mxCell>
        <mxCell id="id3f2C6Toix-JOWdeI2l-3" style="edgeStyle=orthogonalEdgeStyle;rounded=0;orthogonalLoop=1;jettySize=auto;html=1;entryX=1;entryY=0.5;entryDx=0;entryDy=0;" parent="1" source="OS3mKAPkZy1OICuxcwNQ-19" target="id3f2C6Toix-JOWdeI2l-1" edge="1">
          <mxGeometry relative="1" as="geometry" />
        </mxCell>
        <mxCell id="OS3mKAPkZy1OICuxcwNQ-19" value="Victory" style="ellipse;whiteSpace=wrap;html=1;" parent="1" vertex="1">
          <mxGeometry x="40" y="1270" width="120" height="80" as="geometry" />
        </mxCell>
        <mxCell id="OS3mKAPkZy1OICuxcwNQ-21" value="YES" style="text;html=1;align=center;verticalAlign=middle;resizable=0;points=[];autosize=1;strokeColor=none;fillColor=none;" parent="1" vertex="1">
          <mxGeometry x="175" y="1278" width="50" height="30" as="geometry" />
        </mxCell>
        <mxCell id="OS3mKAPkZy1OICuxcwNQ-22" style="edgeStyle=orthogonalEdgeStyle;rounded=0;orthogonalLoop=1;jettySize=auto;html=1;entryX=0.5;entryY=0;entryDx=0;entryDy=0;entryPerimeter=0;" parent="1" source="OS3mKAPkZy1OICuxcwNQ-12" target="OS3mKAPkZy1OICuxcwNQ-18" edge="1">
          <mxGeometry relative="1" as="geometry" />
        </mxCell>
        <mxCell id="OS3mKAPkZy1OICuxcwNQ-23" value="NO" style="text;html=1;align=center;verticalAlign=middle;resizable=0;points=[];autosize=1;strokeColor=none;fillColor=none;" parent="1" vertex="1">
          <mxGeometry x="290" y="1158" width="40" height="30" as="geometry" />
        </mxCell>
        <mxCell id="OS3mKAPkZy1OICuxcwNQ-25" value="NO" style="text;html=1;align=center;verticalAlign=middle;resizable=0;points=[];autosize=1;strokeColor=none;fillColor=none;" parent="1" vertex="1">
          <mxGeometry x="360" y="1278" width="40" height="30" as="geometry" />
        </mxCell>
        <mxCell id="QmYlwwuaD85ARAM7p4Gj-4" style="edgeStyle=orthogonalEdgeStyle;rounded=0;orthogonalLoop=1;jettySize=auto;html=1;entryX=1;entryY=0.5;entryDx=0;entryDy=0;" parent="1" source="QmYlwwuaD85ARAM7p4Gj-1" target="QmYlwwuaD85ARAM7p4Gj-3" edge="1">
          <mxGeometry relative="1" as="geometry" />
        </mxCell>
        <mxCell id="QmYlwwuaD85ARAM7p4Gj-1" value="Show run stats" style="ellipse;whiteSpace=wrap;html=1;" parent="1" vertex="1">
          <mxGeometry x="-180" y="1060" width="120" height="80" as="geometry" />
        </mxCell>
        <mxCell id="QmYlwwuaD85ARAM7p4Gj-9" style="edgeStyle=orthogonalEdgeStyle;rounded=0;orthogonalLoop=1;jettySize=auto;html=1;entryX=1;entryY=0.5;entryDx=0;entryDy=0;" parent="1" source="QmYlwwuaD85ARAM7p4Gj-3" target="QmYlwwuaD85ARAM7p4Gj-8" edge="1">
          <mxGeometry relative="1" as="geometry" />
        </mxCell>
        <mxCell id="QmYlwwuaD85ARAM7p4Gj-3" value="Any&amp;nbsp;&lt;div&gt;unlocks?&lt;/div&gt;" style="rhombus;whiteSpace=wrap;html=1;" parent="1" vertex="1">
          <mxGeometry x="-320" y="1060" width="80" height="80" as="geometry" />
        </mxCell>
        <mxCell id="QmYlwwuaD85ARAM7p4Gj-11" style="edgeStyle=orthogonalEdgeStyle;rounded=0;orthogonalLoop=1;jettySize=auto;html=1;" parent="1" source="QmYlwwuaD85ARAM7p4Gj-8" target="QmYlwwuaD85ARAM7p4Gj-10" edge="1">
          <mxGeometry relative="1" as="geometry" />
        </mxCell>
        <mxCell id="QmYlwwuaD85ARAM7p4Gj-8" value="Show unlock&amp;nbsp;&lt;div&gt;button&lt;/div&gt;" style="ellipse;whiteSpace=wrap;html=1;" parent="1" vertex="1">
          <mxGeometry x="-500" y="1060" width="120" height="80" as="geometry" />
        </mxCell>
        <mxCell id="QmYlwwuaD85ARAM7p4Gj-12" style="edgeStyle=orthogonalEdgeStyle;rounded=0;orthogonalLoop=1;jettySize=auto;html=1;entryX=0.5;entryY=1;entryDx=0;entryDy=0;" parent="1" source="QmYlwwuaD85ARAM7p4Gj-10" target="QmYlwwuaD85ARAM7p4Gj-3" edge="1">
          <mxGeometry relative="1" as="geometry">
            <Array as="points">
              <mxPoint x="-610" y="1170" />
              <mxPoint x="-280" y="1170" />
            </Array>
          </mxGeometry>
        </mxCell>
        <mxCell id="QmYlwwuaD85ARAM7p4Gj-10" value="Show unlocks per page" style="ellipse;whiteSpace=wrap;html=1;" parent="1" vertex="1">
          <mxGeometry x="-670" y="1060" width="120" height="80" as="geometry" />
        </mxCell>
        <mxCell id="QmYlwwuaD85ARAM7p4Gj-13" value="Yes" style="text;html=1;align=center;verticalAlign=middle;resizable=0;points=[];autosize=1;strokeColor=none;fillColor=none;" parent="1" vertex="1">
          <mxGeometry x="-360" y="1070" width="40" height="30" as="geometry" />
        </mxCell>
        <mxCell id="bbZ6ZN18grUARAi-AjBU-9" value="Map" style="strokeWidth=2;html=1;shape=mxgraph.flowchart.terminator;whiteSpace=wrap;" parent="1" vertex="1">
          <mxGeometry x="-540" y="1280" width="100" height="60" as="geometry" />
        </mxCell>
        <mxCell id="bbZ6ZN18grUARAi-AjBU-11" value="Show Main Menu Button" style="strokeWidth=2;html=1;shape=mxgraph.flowchart.terminator;whiteSpace=wrap;" parent="1" vertex="1">
          <mxGeometry x="-340" y="920" width="120" height="70" as="geometry" />
        </mxCell>
        <mxCell id="bbZ6ZN18grUARAi-AjBU-12" style="edgeStyle=orthogonalEdgeStyle;rounded=0;orthogonalLoop=1;jettySize=auto;html=1;entryX=0.5;entryY=1;entryDx=0;entryDy=0;entryPerimeter=0;" parent="1" source="QmYlwwuaD85ARAM7p4Gj-3" target="bbZ6ZN18grUARAi-AjBU-11" edge="1">
          <mxGeometry relative="1" as="geometry" />
        </mxCell>
        <mxCell id="id3f2C6Toix-JOWdeI2l-5" style="edgeStyle=orthogonalEdgeStyle;rounded=0;orthogonalLoop=1;jettySize=auto;html=1;entryX=1;entryY=0.5;entryDx=0;entryDy=0;" parent="1" source="id3f2C6Toix-JOWdeI2l-1" target="id3f2C6Toix-JOWdeI2l-4" edge="1">
          <mxGeometry relative="1" as="geometry" />
        </mxCell>
        <mxCell id="id3f2C6Toix-JOWdeI2l-1" value="Optional&lt;div&gt;Loots&lt;/div&gt;" style="ellipse;whiteSpace=wrap;html=1;" parent="1" vertex="1">
          <mxGeometry x="-180" y="1270" width="120" height="80" as="geometry" />
        </mxCell>
        <mxCell id="id3f2C6Toix-JOWdeI2l-4" value="Item effect&lt;div&gt;example Heal hp&lt;/div&gt;" style="ellipse;whiteSpace=wrap;html=1;" parent="1" vertex="1">
          <mxGeometry x="-370" y="1270" width="120" height="80" as="geometry" />
        </mxCell>
        <mxCell id="id3f2C6Toix-JOWdeI2l-6" style="edgeStyle=orthogonalEdgeStyle;rounded=0;orthogonalLoop=1;jettySize=auto;html=1;entryX=1;entryY=0.5;entryDx=0;entryDy=0;entryPerimeter=0;" parent="1" source="id3f2C6Toix-JOWdeI2l-4" target="bbZ6ZN18grUARAi-AjBU-9" edge="1">
          <mxGeometry relative="1" as="geometry" />
        </mxCell>
        <mxCell id="t4_ijsETieM0t6LIqUsj-3" style="edgeStyle=orthogonalEdgeStyle;rounded=0;orthogonalLoop=1;jettySize=auto;html=1;" parent="1" source="t4_ijsETieM0t6LIqUsj-1" target="t4_ijsETieM0t6LIqUsj-2" edge="1">
          <mxGeometry relative="1" as="geometry" />
        </mxCell>
        <mxCell id="t4_ijsETieM0t6LIqUsj-5" style="edgeStyle=orthogonalEdgeStyle;rounded=0;orthogonalLoop=1;jettySize=auto;html=1;" parent="1" source="t4_ijsETieM0t6LIqUsj-1" target="t4_ijsETieM0t6LIqUsj-4" edge="1">
          <mxGeometry relative="1" as="geometry" />
        </mxCell>
        <mxCell id="t4_ijsETieM0t6LIqUsj-1" value="&lt;div&gt;Class&lt;/div&gt;UI" style="ellipse;whiteSpace=wrap;html=1;" parent="1" vertex="1">
          <mxGeometry x="940" y="60" width="120" height="80" as="geometry" />
        </mxCell>
        <mxCell id="t4_ijsETieM0t6LIqUsj-2" value="Enable/Disable&lt;div&gt;Root Component&lt;/div&gt;" style="ellipse;whiteSpace=wrap;html=1;" parent="1" vertex="1">
          <mxGeometry x="1110" y="60" width="120" height="80" as="geometry" />
        </mxCell>
        <mxCell id="t4_ijsETieM0t6LIqUsj-4" value="Inherited by&lt;div&gt;Menu Classes&lt;/div&gt;" style="ellipse;whiteSpace=wrap;html=1;" parent="1" vertex="1">
          <mxGeometry x="940" y="200" width="120" height="80" as="geometry" />
        </mxCell>
        <mxCell id="t4_ijsETieM0t6LIqUsj-9" style="edgeStyle=orthogonalEdgeStyle;rounded=0;orthogonalLoop=1;jettySize=auto;html=1;entryX=0.5;entryY=0;entryDx=0;entryDy=0;" parent="1" source="t4_ijsETieM0t6LIqUsj-6" target="t4_ijsETieM0t6LIqUsj-7" edge="1">
          <mxGeometry relative="1" as="geometry" />
        </mxCell>
        <mxCell id="t4_ijsETieM0t6LIqUsj-6" value="Main Menu" style="ellipse;whiteSpace=wrap;html=1;" parent="1" vertex="1">
          <mxGeometry x="1290" y="60" width="120" height="80" as="geometry" />
        </mxCell>
        <mxCell id="t4_ijsETieM0t6LIqUsj-10" style="edgeStyle=orthogonalEdgeStyle;rounded=0;orthogonalLoop=1;jettySize=auto;html=1;entryX=0.5;entryY=0;entryDx=0;entryDy=0;" parent="1" source="t4_ijsETieM0t6LIqUsj-7" target="t4_ijsETieM0t6LIqUsj-8" edge="1">
          <mxGeometry relative="1" as="geometry" />
        </mxCell>
        <mxCell id="t4_ijsETieM0t6LIqUsj-7" value="Character&lt;div&gt;Selection&lt;/div&gt;" style="ellipse;whiteSpace=wrap;html=1;" parent="1" vertex="1">
          <mxGeometry x="1290" y="180" width="120" height="80" as="geometry" />
        </mxCell>
        <mxCell id="t4_ijsETieM0t6LIqUsj-12" style="edgeStyle=orthogonalEdgeStyle;rounded=0;orthogonalLoop=1;jettySize=auto;html=1;entryX=0.5;entryY=0;entryDx=0;entryDy=0;" parent="1" source="t4_ijsETieM0t6LIqUsj-8" target="t4_ijsETieM0t6LIqUsj-11" edge="1">
          <mxGeometry relative="1" as="geometry" />
        </mxCell>
        <mxCell id="t4_ijsETieM0t6LIqUsj-8" value="Map" style="ellipse;whiteSpace=wrap;html=1;" parent="1" vertex="1">
          <mxGeometry x="1290" y="310" width="120" height="80" as="geometry" />
        </mxCell>
        <mxCell id="t4_ijsETieM0t6LIqUsj-11" value="Loading" style="ellipse;whiteSpace=wrap;html=1;" parent="1" vertex="1">
          <mxGeometry x="1290" y="440" width="120" height="80" as="geometry" />
        </mxCell>
        <mxCell id="t4_ijsETieM0t6LIqUsj-36" value="Post Battle&amp;nbsp;&lt;div&gt;effects&lt;/div&gt;" style="rounded=1;whiteSpace=wrap;html=1;absoluteArcSize=1;arcSize=14;strokeWidth=2;" parent="1" vertex="1">
          <mxGeometry x="30" y="880" width="100" height="100" as="geometry" />
        </mxCell>
        <mxCell id="t4_ijsETieM0t6LIqUsj-38" value="Do action" style="rounded=1;whiteSpace=wrap;html=1;absoluteArcSize=1;arcSize=14;strokeWidth=2;" parent="1" vertex="1">
          <mxGeometry x="20" y="510" width="100" height="100" as="geometry" />
        </mxCell>
        <mxCell id="t4_ijsETieM0t6LIqUsj-43" style="edgeStyle=orthogonalEdgeStyle;rounded=0;orthogonalLoop=1;jettySize=auto;html=1;entryX=1;entryY=0.5;entryDx=0;entryDy=0;" parent="1" edge="1">
          <mxGeometry relative="1" as="geometry">
            <mxPoint x="30" y="-590" as="sourcePoint" />
            <mxPoint x="-70" y="-590" as="targetPoint" />
          </mxGeometry>
        </mxCell>
        <mxCell id="t4_ijsETieM0t6LIqUsj-40" value="Environment effects" style="rounded=1;whiteSpace=wrap;html=1;absoluteArcSize=1;arcSize=14;strokeWidth=2;" parent="1" vertex="1">
          <mxGeometry x="20" y="-640" width="100" height="100" as="geometry" />
        </mxCell>
        <mxCell id="t4_ijsETieM0t6LIqUsj-45" style="edgeStyle=orthogonalEdgeStyle;rounded=0;orthogonalLoop=1;jettySize=auto;html=1;entryX=1;entryY=0.5;entryDx=0;entryDy=0;" parent="1" edge="1">
          <mxGeometry relative="1" as="geometry">
            <mxPoint x="-170" y="-590" as="sourcePoint" />
            <mxPoint x="-260" y="-590" as="targetPoint" />
          </mxGeometry>
        </mxCell>
        <mxCell id="t4_ijsETieM0t6LIqUsj-42" value="Row effects&lt;div&gt;Could change&lt;/div&gt;" style="rounded=1;whiteSpace=wrap;html=1;absoluteArcSize=1;arcSize=14;strokeWidth=2;" parent="1" vertex="1">
          <mxGeometry x="-180" y="-640" width="100" height="100" as="geometry" />
        </mxCell>
        <mxCell id="t4_ijsETieM0t6LIqUsj-44" value="&lt;div&gt;Pick&lt;/div&gt;Enemy Action" style="rounded=1;whiteSpace=wrap;html=1;absoluteArcSize=1;arcSize=14;strokeWidth=2;" parent="1" vertex="1">
          <mxGeometry x="-370" y="-640" width="100" height="100" as="geometry" />
        </mxCell>
        <mxCell id="t4_ijsETieM0t6LIqUsj-46" value="Show Enemy&lt;div&gt;Action&lt;/div&gt;" style="strokeWidth=2;html=1;shape=mxgraph.flowchart.display;whiteSpace=wrap;" parent="1" vertex="1">
          <mxGeometry x="-525" y="-620" width="100" height="60" as="geometry" />
        </mxCell>
        <mxCell id="t4_ijsETieM0t6LIqUsj-48" style="edgeStyle=orthogonalEdgeStyle;rounded=0;orthogonalLoop=1;jettySize=auto;html=1;entryX=1;entryY=0.5;entryDx=0;entryDy=0;entryPerimeter=0;" parent="1" target="t4_ijsETieM0t6LIqUsj-46" edge="1">
          <mxGeometry relative="1" as="geometry">
            <mxPoint x="-360" y="-590" as="sourcePoint" />
          </mxGeometry>
        </mxCell>
        <mxCell id="t4_ijsETieM0t6LIqUsj-59" style="edgeStyle=orthogonalEdgeStyle;rounded=0;orthogonalLoop=1;jettySize=auto;html=1;entryX=0.5;entryY=0;entryDx=0;entryDy=0;" parent="1" source="t4_ijsETieM0t6LIqUsj-49" target="OS3mKAPkZy1OICuxcwNQ-5" edge="1">
          <mxGeometry relative="1" as="geometry">
            <Array as="points">
              <mxPoint x="140" y="10" />
              <mxPoint x="290" y="10" />
            </Array>
          </mxGeometry>
        </mxCell>
        <mxCell id="t4_ijsETieM0t6LIqUsj-49" value="10 s Timer" style="strokeWidth=2;html=1;shape=mxgraph.flowchart.delay;whiteSpace=wrap;" parent="1" vertex="1">
          <mxGeometry x="90" y="-110" width="100" height="60" as="geometry" />
        </mxCell>
        <mxCell id="t4_ijsETieM0t6LIqUsj-50" style="edgeStyle=orthogonalEdgeStyle;rounded=0;orthogonalLoop=1;jettySize=auto;html=1;entryX=1;entryY=0.5;entryDx=0;entryDy=0;entryPerimeter=0;" parent="1" source="OS3mKAPkZy1OICuxcwNQ-2" target="t4_ijsETieM0t6LIqUsj-49" edge="1">
          <mxGeometry relative="1" as="geometry" />
        </mxCell>
        <mxCell id="t4_ijsETieM0t6LIqUsj-62" style="edgeStyle=orthogonalEdgeStyle;rounded=0;orthogonalLoop=1;jettySize=auto;html=1;entryX=0.5;entryY=0;entryDx=0;entryDy=0;" parent="1" source="t4_ijsETieM0t6LIqUsj-60" target="OS3mKAPkZy1OICuxcwNQ-5" edge="1">
          <mxGeometry relative="1" as="geometry">
            <Array as="points">
              <mxPoint x="50" y="-200" />
              <mxPoint x="50" y="10" />
              <mxPoint x="290" y="10" />
            </Array>
          </mxGeometry>
        </mxCell>
        <mxCell id="t4_ijsETieM0t6LIqUsj-60" value="End Pick&lt;div&gt;Position&lt;/div&gt;&lt;div&gt;Btn&lt;/div&gt;" style="strokeWidth=2;html=1;shape=mxgraph.flowchart.start_1;whiteSpace=wrap;" parent="1" vertex="1">
          <mxGeometry x="90" y="-230" width="100" height="60" as="geometry" />
        </mxCell>
        <mxCell id="t4_ijsETieM0t6LIqUsj-61" style="edgeStyle=orthogonalEdgeStyle;rounded=0;orthogonalLoop=1;jettySize=auto;html=1;entryX=1;entryY=0.5;entryDx=0;entryDy=0;entryPerimeter=0;" parent="1" source="OS3mKAPkZy1OICuxcwNQ-2" target="t4_ijsETieM0t6LIqUsj-60" edge="1">
          <mxGeometry relative="1" as="geometry" />
        </mxCell>
        <mxCell id="t4_ijsETieM0t6LIqUsj-110" style="edgeStyle=orthogonalEdgeStyle;rounded=0;orthogonalLoop=1;jettySize=auto;html=1;entryX=0.5;entryY=0;entryDx=0;entryDy=0;" parent="1" source="t4_ijsETieM0t6LIqUsj-63" target="t4_ijsETieM0t6LIqUsj-109" edge="1">
          <mxGeometry relative="1" as="geometry" />
        </mxCell>
        <mxCell id="t4_ijsETieM0t6LIqUsj-63" value="End Turn btn&lt;div&gt;interactable&lt;/div&gt;" style="strokeWidth=2;html=1;shape=mxgraph.flowchart.display;whiteSpace=wrap;" parent="1" vertex="1">
          <mxGeometry x="75" y="70" width="105" height="60" as="geometry" />
        </mxCell>
        <mxCell id="t4_ijsETieM0t6LIqUsj-64" style="edgeStyle=orthogonalEdgeStyle;rounded=0;orthogonalLoop=1;jettySize=auto;html=1;entryX=1;entryY=0.5;entryDx=0;entryDy=0;entryPerimeter=0;" parent="1" source="OS3mKAPkZy1OICuxcwNQ-5" target="t4_ijsETieM0t6LIqUsj-63" edge="1">
          <mxGeometry relative="1" as="geometry" />
        </mxCell>
        <mxCell id="t4_ijsETieM0t6LIqUsj-70" style="edgeStyle=orthogonalEdgeStyle;rounded=0;orthogonalLoop=1;jettySize=auto;html=1;entryX=1;entryY=0.5;entryDx=0;entryDy=0;" parent="1" source="t4_ijsETieM0t6LIqUsj-65" target="t4_ijsETieM0t6LIqUsj-68" edge="1">
          <mxGeometry relative="1" as="geometry" />
        </mxCell>
        <mxCell id="t4_ijsETieM0t6LIqUsj-65" value="Show new cards" style="strokeWidth=2;html=1;shape=mxgraph.flowchart.display;whiteSpace=wrap;" parent="1" vertex="1">
          <mxGeometry x="-80" y="70" width="100" height="60" as="geometry" />
        </mxCell>
        <mxCell id="t4_ijsETieM0t6LIqUsj-66" style="edgeStyle=orthogonalEdgeStyle;rounded=0;orthogonalLoop=1;jettySize=auto;html=1;entryX=1;entryY=0.5;entryDx=0;entryDy=0;entryPerimeter=0;" parent="1" source="t4_ijsETieM0t6LIqUsj-63" target="t4_ijsETieM0t6LIqUsj-65" edge="1">
          <mxGeometry relative="1" as="geometry" />
        </mxCell>
        <mxCell id="t4_ijsETieM0t6LIqUsj-68" value="&lt;div&gt;&lt;span style=&quot;background-color: transparent; color: light-dark(rgb(0, 0, 0), rgb(255, 255, 255));&quot;&gt;Check&lt;/span&gt;&lt;/div&gt;&lt;div&gt;mouse pos&lt;/div&gt;" style="ellipse;whiteSpace=wrap;html=1;" parent="1" vertex="1">
          <mxGeometry x="-250" y="60" width="120" height="80" as="geometry" />
        </mxCell>
        <mxCell id="t4_ijsETieM0t6LIqUsj-76" style="edgeStyle=orthogonalEdgeStyle;rounded=0;orthogonalLoop=1;jettySize=auto;html=1;entryX=1;entryY=0.5;entryDx=0;entryDy=0;" parent="1" source="t4_ijsETieM0t6LIqUsj-71" target="t4_ijsETieM0t6LIqUsj-73" edge="1">
          <mxGeometry relative="1" as="geometry" />
        </mxCell>
        <mxCell id="t4_ijsETieM0t6LIqUsj-71" value="Mouse&lt;div&gt;over&lt;/div&gt;&lt;div&gt;Card&lt;/div&gt;" style="strokeWidth=2;html=1;shape=mxgraph.flowchart.decision;whiteSpace=wrap;" parent="1" vertex="1">
          <mxGeometry x="-430" y="-200" width="100" height="100" as="geometry" />
        </mxCell>
        <mxCell id="t4_ijsETieM0t6LIqUsj-73" value="Make Card details&lt;br&gt;&lt;div&gt;&amp;nbsp;readable&lt;/div&gt;" style="ellipse;whiteSpace=wrap;html=1;" parent="1" vertex="1">
          <mxGeometry x="-610" y="-190" width="120" height="80" as="geometry" />
        </mxCell>
        <mxCell id="t4_ijsETieM0t6LIqUsj-75" value="YES" style="text;html=1;align=center;verticalAlign=middle;resizable=0;points=[];autosize=1;strokeColor=none;fillColor=none;" parent="1" vertex="1">
          <mxGeometry x="-480" y="-180" width="50" height="30" as="geometry" />
        </mxCell>
        <mxCell id="t4_ijsETieM0t6LIqUsj-78" value="Mouse&lt;div&gt;over&lt;/div&gt;&lt;div&gt;Enemy&lt;/div&gt;" style="strokeWidth=2;html=1;shape=mxgraph.flowchart.decision;whiteSpace=wrap;" parent="1" vertex="1">
          <mxGeometry x="-430" y="-60" width="100" height="100" as="geometry" />
        </mxCell>
        <mxCell id="t4_ijsETieM0t6LIqUsj-79" style="edgeStyle=orthogonalEdgeStyle;rounded=0;orthogonalLoop=1;jettySize=auto;html=1;entryX=0.5;entryY=0;entryDx=0;entryDy=0;entryPerimeter=0;" parent="1" source="t4_ijsETieM0t6LIqUsj-71" target="t4_ijsETieM0t6LIqUsj-78" edge="1">
          <mxGeometry relative="1" as="geometry" />
        </mxCell>
        <mxCell id="t4_ijsETieM0t6LIqUsj-80" value="NO" style="text;html=1;align=center;verticalAlign=middle;resizable=0;points=[];autosize=1;strokeColor=none;fillColor=none;" parent="1" vertex="1">
          <mxGeometry x="-380" y="-95" width="40" height="30" as="geometry" />
        </mxCell>
        <mxCell id="t4_ijsETieM0t6LIqUsj-83" value="Highlight&amp;nbsp;&lt;div&gt;Enemy&lt;/div&gt;" style="strokeWidth=2;html=1;shape=mxgraph.flowchart.display;whiteSpace=wrap;" parent="1" vertex="1">
          <mxGeometry x="-590" y="-40" width="100" height="60" as="geometry" />
        </mxCell>
        <mxCell id="t4_ijsETieM0t6LIqUsj-84" style="edgeStyle=orthogonalEdgeStyle;rounded=0;orthogonalLoop=1;jettySize=auto;html=1;entryX=1;entryY=0.5;entryDx=0;entryDy=0;entryPerimeter=0;" parent="1" source="t4_ijsETieM0t6LIqUsj-78" target="t4_ijsETieM0t6LIqUsj-83" edge="1">
          <mxGeometry relative="1" as="geometry" />
        </mxCell>
        <mxCell id="t4_ijsETieM0t6LIqUsj-87" value="YES" style="text;html=1;align=center;verticalAlign=middle;resizable=0;points=[];autosize=1;strokeColor=none;fillColor=none;" parent="1" vertex="1">
          <mxGeometry x="-480" y="-40" width="50" height="30" as="geometry" />
        </mxCell>
        <mxCell id="t4_ijsETieM0t6LIqUsj-89" value="Mouse&lt;div&gt;over&lt;/div&gt;&lt;div&gt;Empty&lt;/div&gt;&lt;div&gt;Row&lt;/div&gt;" style="strokeWidth=2;html=1;shape=mxgraph.flowchart.decision;whiteSpace=wrap;" parent="1" vertex="1">
          <mxGeometry x="-430" y="95" width="100" height="100" as="geometry" />
        </mxCell>
        <mxCell id="t4_ijsETieM0t6LIqUsj-90" style="edgeStyle=orthogonalEdgeStyle;rounded=0;orthogonalLoop=1;jettySize=auto;html=1;entryX=0.5;entryY=0;entryDx=0;entryDy=0;entryPerimeter=0;" parent="1" source="t4_ijsETieM0t6LIqUsj-78" target="t4_ijsETieM0t6LIqUsj-89" edge="1">
          <mxGeometry relative="1" as="geometry" />
        </mxCell>
        <mxCell id="t4_ijsETieM0t6LIqUsj-91" value="NO" style="text;html=1;align=center;verticalAlign=middle;resizable=0;points=[];autosize=1;strokeColor=none;fillColor=none;" parent="1" vertex="1">
          <mxGeometry x="-380" y="50" width="40" height="30" as="geometry" />
        </mxCell>
        <mxCell id="t4_ijsETieM0t6LIqUsj-92" value="Highlight&amp;nbsp;&lt;div&gt;Row&lt;/div&gt;" style="strokeWidth=2;html=1;shape=mxgraph.flowchart.display;whiteSpace=wrap;" parent="1" vertex="1">
          <mxGeometry x="-590" y="115" width="100" height="60" as="geometry" />
        </mxCell>
        <mxCell id="t4_ijsETieM0t6LIqUsj-93" style="edgeStyle=orthogonalEdgeStyle;rounded=0;orthogonalLoop=1;jettySize=auto;html=1;entryX=1;entryY=0.5;entryDx=0;entryDy=0;entryPerimeter=0;" parent="1" source="t4_ijsETieM0t6LIqUsj-89" target="t4_ijsETieM0t6LIqUsj-92" edge="1">
          <mxGeometry relative="1" as="geometry" />
        </mxCell>
        <mxCell id="t4_ijsETieM0t6LIqUsj-94" value="Show Row&amp;nbsp;&lt;div&gt;Bonus&lt;/div&gt;" style="strokeWidth=2;html=1;shape=mxgraph.flowchart.display;whiteSpace=wrap;" parent="1" vertex="1">
          <mxGeometry x="-750" y="115" width="100" height="60" as="geometry" />
        </mxCell>
        <mxCell id="t4_ijsETieM0t6LIqUsj-95" style="edgeStyle=orthogonalEdgeStyle;rounded=0;orthogonalLoop=1;jettySize=auto;html=1;entryX=1;entryY=0.5;entryDx=0;entryDy=0;entryPerimeter=0;" parent="1" source="t4_ijsETieM0t6LIqUsj-92" target="t4_ijsETieM0t6LIqUsj-94" edge="1">
          <mxGeometry relative="1" as="geometry" />
        </mxCell>
        <mxCell id="t4_ijsETieM0t6LIqUsj-96" value="Show Details&lt;div&gt;Hp, next action&lt;/div&gt;" style="strokeWidth=2;html=1;shape=mxgraph.flowchart.display;whiteSpace=wrap;" parent="1" vertex="1">
          <mxGeometry x="-750" y="-40" width="100" height="60" as="geometry" />
        </mxCell>
        <mxCell id="t4_ijsETieM0t6LIqUsj-97" style="edgeStyle=orthogonalEdgeStyle;rounded=0;orthogonalLoop=1;jettySize=auto;html=1;entryX=1;entryY=0.5;entryDx=0;entryDy=0;entryPerimeter=0;" parent="1" source="t4_ijsETieM0t6LIqUsj-83" target="t4_ijsETieM0t6LIqUsj-96" edge="1">
          <mxGeometry relative="1" as="geometry" />
        </mxCell>
        <mxCell id="t4_ijsETieM0t6LIqUsj-98" style="edgeStyle=orthogonalEdgeStyle;rounded=0;orthogonalLoop=1;jettySize=auto;html=1;entryX=1;entryY=0.5;entryDx=0;entryDy=0;entryPerimeter=0;" parent="1" source="t4_ijsETieM0t6LIqUsj-68" target="t4_ijsETieM0t6LIqUsj-71" edge="1">
          <mxGeometry relative="1" as="geometry">
            <Array as="points">
              <mxPoint x="-190" y="-150" />
            </Array>
          </mxGeometry>
        </mxCell>
        <mxCell id="t4_ijsETieM0t6LIqUsj-105" style="edgeStyle=orthogonalEdgeStyle;rounded=0;orthogonalLoop=1;jettySize=auto;html=1;entryX=0.5;entryY=1;entryDx=0;entryDy=0;" parent="1" source="t4_ijsETieM0t6LIqUsj-99" target="t4_ijsETieM0t6LIqUsj-68" edge="1">
          <mxGeometry relative="1" as="geometry" />
        </mxCell>
        <mxCell id="t4_ijsETieM0t6LIqUsj-99" value="Mouse&lt;div&gt;over&lt;/div&gt;&lt;div&gt;Toolbar&lt;/div&gt;" style="strokeWidth=2;html=1;shape=mxgraph.flowchart.decision;whiteSpace=wrap;" parent="1" vertex="1">
          <mxGeometry x="-430" y="245" width="100" height="100" as="geometry" />
        </mxCell>
        <mxCell id="t4_ijsETieM0t6LIqUsj-101" style="edgeStyle=orthogonalEdgeStyle;rounded=0;orthogonalLoop=1;jettySize=auto;html=1;entryX=0.5;entryY=0;entryDx=0;entryDy=0;entryPerimeter=0;" parent="1" source="t4_ijsETieM0t6LIqUsj-89" target="t4_ijsETieM0t6LIqUsj-99" edge="1">
          <mxGeometry relative="1" as="geometry" />
        </mxCell>
        <mxCell id="t4_ijsETieM0t6LIqUsj-102" value="NO" style="text;html=1;align=center;verticalAlign=middle;resizable=0;points=[];autosize=1;strokeColor=none;fillColor=none;" parent="1" vertex="1">
          <mxGeometry x="-380" y="205" width="40" height="30" as="geometry" />
        </mxCell>
        <mxCell id="t4_ijsETieM0t6LIqUsj-103" value="Show&lt;div&gt;tooltip&lt;/div&gt;" style="strokeWidth=2;html=1;shape=mxgraph.flowchart.display;whiteSpace=wrap;" parent="1" vertex="1">
          <mxGeometry x="-590" y="265" width="100" height="60" as="geometry" />
        </mxCell>
        <mxCell id="t4_ijsETieM0t6LIqUsj-104" style="edgeStyle=orthogonalEdgeStyle;rounded=0;orthogonalLoop=1;jettySize=auto;html=1;entryX=1;entryY=0.5;entryDx=0;entryDy=0;entryPerimeter=0;" parent="1" source="t4_ijsETieM0t6LIqUsj-99" target="t4_ijsETieM0t6LIqUsj-103" edge="1">
          <mxGeometry relative="1" as="geometry" />
        </mxCell>
        <mxCell id="t4_ijsETieM0t6LIqUsj-106" value="YES" style="text;html=1;align=center;verticalAlign=middle;resizable=0;points=[];autosize=1;strokeColor=none;fillColor=none;" parent="1" vertex="1">
          <mxGeometry x="-480" y="265" width="50" height="30" as="geometry" />
        </mxCell>
        <mxCell id="t4_ijsETieM0t6LIqUsj-107" value="YES" style="text;html=1;align=center;verticalAlign=middle;resizable=0;points=[];autosize=1;strokeColor=none;fillColor=none;" parent="1" vertex="1">
          <mxGeometry x="-480" y="115" width="50" height="30" as="geometry" />
        </mxCell>
        <mxCell id="t4_ijsETieM0t6LIqUsj-108" value="NO" style="text;html=1;align=center;verticalAlign=middle;resizable=0;points=[];autosize=1;strokeColor=none;fillColor=none;" parent="1" vertex="1">
          <mxGeometry x="-290" y="265" width="40" height="30" as="geometry" />
        </mxCell>
        <mxCell id="t4_ijsETieM0t6LIqUsj-111" style="edgeStyle=orthogonalEdgeStyle;rounded=0;orthogonalLoop=1;jettySize=auto;html=1;entryX=0.5;entryY=0;entryDx=0;entryDy=0;" parent="1" source="t4_ijsETieM0t6LIqUsj-109" target="OS3mKAPkZy1OICuxcwNQ-8" edge="1">
          <mxGeometry relative="1" as="geometry" />
        </mxCell>
        <mxCell id="t4_ijsETieM0t6LIqUsj-109" value="On Click End Turn" style="ellipse;whiteSpace=wrap;html=1;" parent="1" vertex="1">
          <mxGeometry x="67.5" y="205" width="120" height="80" as="geometry" />
        </mxCell>
        <mxCell id="ngAAdajnlCWlXH3okT4t-4" style="edgeStyle=orthogonalEdgeStyle;rounded=0;orthogonalLoop=1;jettySize=auto;html=1;" edge="1" parent="1" source="ngAAdajnlCWlXH3okT4t-1" target="ngAAdajnlCWlXH3okT4t-2">
          <mxGeometry relative="1" as="geometry" />
        </mxCell>
        <mxCell id="ngAAdajnlCWlXH3okT4t-5" style="edgeStyle=orthogonalEdgeStyle;rounded=0;orthogonalLoop=1;jettySize=auto;html=1;" edge="1" parent="1" source="ngAAdajnlCWlXH3okT4t-1" target="ngAAdajnlCWlXH3okT4t-3">
          <mxGeometry relative="1" as="geometry" />
        </mxCell>
        <mxCell id="ngAAdajnlCWlXH3okT4t-1" value="Node Parent&lt;div&gt;(Root)&lt;/div&gt;" style="ellipse;whiteSpace=wrap;html=1;" vertex="1" parent="1">
          <mxGeometry x="980" y="-880" width="120" height="80" as="geometry" />
        </mxCell>
        <mxCell id="ngAAdajnlCWlXH3okT4t-7" style="edgeStyle=orthogonalEdgeStyle;rounded=0;orthogonalLoop=1;jettySize=auto;html=1;entryX=0.5;entryY=0;entryDx=0;entryDy=0;" edge="1" parent="1" source="ngAAdajnlCWlXH3okT4t-2" target="ngAAdajnlCWlXH3okT4t-6">
          <mxGeometry relative="1" as="geometry" />
        </mxCell>
        <mxCell id="ngAAdajnlCWlXH3okT4t-2" value="Player Placeable&lt;div&gt;Area&lt;/div&gt;" style="ellipse;whiteSpace=wrap;html=1;" vertex="1" parent="1">
          <mxGeometry x="860" y="-740" width="120" height="80" as="geometry" />
        </mxCell>
        <mxCell id="ngAAdajnlCWlXH3okT4t-9" style="edgeStyle=orthogonalEdgeStyle;rounded=0;orthogonalLoop=1;jettySize=auto;html=1;entryX=0.5;entryY=0;entryDx=0;entryDy=0;" edge="1" parent="1" source="ngAAdajnlCWlXH3okT4t-3" target="ngAAdajnlCWlXH3okT4t-8">
          <mxGeometry relative="1" as="geometry" />
        </mxCell>
        <mxCell id="ngAAdajnlCWlXH3okT4t-3" value="Enemy Placeable&lt;div&gt;Area&lt;/div&gt;" style="ellipse;whiteSpace=wrap;html=1;" vertex="1" parent="1">
          <mxGeometry x="1090" y="-740" width="120" height="80" as="geometry" />
        </mxCell>
        <mxCell id="ngAAdajnlCWlXH3okT4t-11" style="edgeStyle=orthogonalEdgeStyle;rounded=0;orthogonalLoop=1;jettySize=auto;html=1;entryX=0.5;entryY=0;entryDx=0;entryDy=0;" edge="1" parent="1" source="ngAAdajnlCWlXH3okT4t-6" target="ngAAdajnlCWlXH3okT4t-10">
          <mxGeometry relative="1" as="geometry" />
        </mxCell>
        <mxCell id="ngAAdajnlCWlXH3okT4t-6" value="Rows" style="ellipse;whiteSpace=wrap;html=1;" vertex="1" parent="1">
          <mxGeometry x="860" y="-610" width="120" height="80" as="geometry" />
        </mxCell>
        <mxCell id="ngAAdajnlCWlXH3okT4t-13" style="edgeStyle=orthogonalEdgeStyle;rounded=0;orthogonalLoop=1;jettySize=auto;html=1;" edge="1" parent="1" source="ngAAdajnlCWlXH3okT4t-8" target="ngAAdajnlCWlXH3okT4t-12">
          <mxGeometry relative="1" as="geometry" />
        </mxCell>
        <mxCell id="ngAAdajnlCWlXH3okT4t-8" value="Rows" style="ellipse;whiteSpace=wrap;html=1;" vertex="1" parent="1">
          <mxGeometry x="1090" y="-610" width="120" height="80" as="geometry" />
        </mxCell>
        <mxCell id="ngAAdajnlCWlXH3okT4t-10" value="Nodes" style="ellipse;whiteSpace=wrap;html=1;" vertex="1" parent="1">
          <mxGeometry x="860" y="-480" width="120" height="80" as="geometry" />
        </mxCell>
        <mxCell id="ngAAdajnlCWlXH3okT4t-12" value="Nodes" style="ellipse;whiteSpace=wrap;html=1;" vertex="1" parent="1">
          <mxGeometry x="1090" y="-480" width="120" height="80" as="geometry" />
        </mxCell>
      </root>
    </mxGraphModel>
  </diagram>
</mxfile>
